<svg fill="#000000" xmlns="http://www.w3.org/2000/svg" viewBox="0 0 50 50" width="500px" height="500px"><path fill="none" stroke="#000000" stroke-linecap="round" stroke-miterlimit="10" stroke-width="2" d="M13 14L37 14M13 21L37 21M13 28L23 28"/><path fill="none" stroke="#000000" stroke-linejoin="round" stroke-miterlimit="10" stroke-width="2" d="M40,44H7c-1.105,0-2-0.895-2-2V7c0-1.105,0.895-2,2-2h36c1.105,0,2,0.895,2,2v33.221"/><path d="M48.9,42.9L34.702,28.888c-0.124-0.122-0.276-0.209-0.444-0.254l-6-1.6c-0.35-0.092-0.718,0.008-0.97,0.265c-0.252,0.256-0.348,0.628-0.25,0.974l1.7,6c0.047,0.166,0.135,0.316,0.258,0.438L43.1,48.7c1.6,1.6,4.1,1.7,5.8,0C50.5,47.1,50.3,44.5,48.9,42.9z M43.756,46.644L30.591,33.475l-1.149-4.056l4.045,1.079l13.254,13.161L43.756,46.644z"/><path d="M28.4 28.4L34.2 29.8 29.8 34.1z"/></svg>