<svg fill="#000000" xmlns="http://www.w3.org/2000/svg" viewBox="0 0 50 50" width="500px" height="500px"><path d="M 25 2 C 12.309288 2 2 12.309297 2 25 C 2 37.690703 12.309288 48 25 48 C 37.690712 48 48 37.690703 48 25 C 48 12.309297 37.690712 2 25 2 z M 25 4 C 36.609833 4 46 13.390175 46 25 C 46 36.609825 36.609833 46 25 46 C 13.390167 46 4 36.609825 4 25 C 4 13.390175 13.390167 4 25 4 z M 25 9.8085938 L 24.066406 12.242188 L 20.998047 20.236328 L 9.8691406 20.841797 L 18.470703 27.869141 L 15.689453 38.638672 L 25 32.591797 L 34.310547 38.638672 L 31.529297 27.869141 L 40.130859 20.841797 L 29.001953 20.236328 L 25 9.8085938 z M 25 15.392578 L 27.597656 22.164062 L 34.867188 22.558594 L 29.271484 27.130859 L 31.089844 34.160156 L 25 30.207031 L 18.910156 34.160156 L 20.728516 27.130859 L 15.132812 22.558594 L 22.402344 22.164062 L 25 15.392578 z"/></svg>